# Generated by MaloW's Obj-exporter


mtllib Helipad.mtl
g default
v -10.922585 -0.500000 10.922585
v 10.922585 -0.500000 10.922585
v -10.000000 0.500000 10.000000
v 10.000000 0.500000 10.000000
v -10.000000 0.500000 -10.000000
v 10.000000 0.500000 -10.000000
v -10.922585 -0.500000 -10.922585
v 10.922585 -0.500000 -10.922585
vt 5.27274370193 0.582528591156
vt 4.01544952393 0.639023661613
vt 0.000955056399107 -0.00937113165855
vt -1.89389705658 -0.200111076236
vt -2.17880368233 0.682215511799
vt 1.00836849213 1.007365942
vt 3.98993134499 1.32031965256
vt 4.92926883698 0.465094447136
vt 4.91655683517 -0.200111076236
vt -6.10618209839 0.608859479427
vt -6.23093414307 -0.32069593668
vt 3.26848554611 0.682215511799
vt -0.00836855173111 1.007365942
vt 3.9141831398 0.0481312870979
vt 1.00836849213 -0.00937113165855
vt -2.84209918976 0.0481312870979
vt 5.206782341 -0.32069593668
vt -1.89369249344 0.464894771576
vt -2.75626659393 0.586763620377
vt -3.02403068542 1.3762087822
vn 0.000000 0.678085 0.734983
vn 0.000000 0.678085 0.734983
vn 0.000000 0.678085 0.734983
vn 0.000000 0.678085 0.734983
vn 0.000000 1.000000 0.000000
vn 0.000000 1.000000 0.000000
vn 0.000000 1.000000 0.000000
vn 0.000000 1.000000 0.000000
vn 0.000000 0.678085 -0.734983
vn 0.000000 0.678085 -0.734983
vn 0.000000 0.678085 -0.734983
vn 0.000000 0.678085 -0.734983
vn 0.734983 0.678086 0.000000
vn 0.734984 0.678085 0.000000
vn 0.734984 0.678085 0.000000
vn 0.734984 0.678084 0.000000
vn -0.734983 0.678086 0.000000
vn -0.734984 0.678085 0.000000
vn -0.734984 0.678085 0.000000
vn -0.734984 0.678084 0.000000
s 0
g pCube1
s 1
usemtl lambert3SG
f 1/19/1 2/2/2 3/16/3 
f 3/16/3 2/2/2 4/14/4 
usemtl lambert2SG
f 3/3/5 4/15/6 5/13/7 
f 5/13/7 4/15/6 6/6/8 
usemtl lambert3SG
f 5/5/9 6/12/10 7/20/11 
f 7/20/11 6/12/10 8/7/12 
f 2/18/13 8/8/14 4/4/15 
f 4/4/15 8/8/14 6/9/16 
f 7/10/17 1/1/18 5/11/19 
f 5/11/19 1/1/18 3/17/20 
