# Generated by MaloW's Obj-exporter


mtllib RedArrow.mtl
g default
v -0.353177 -1.586088 0.353177
v 0.353177 -1.586088 0.353177
v -0.353177 1.945684 0.353177
v 0.353177 1.945684 0.353177
v -0.353177 1.945684 -0.353177
v 0.353177 1.945684 -0.353177
v -0.353177 -1.586088 -0.353177
v 0.353177 -1.586088 -0.353177
v -0.000000 -1.312442 -0.899042
v 0.899042 -1.312442 -0.000000
v 0.000000 -1.312442 0.899042
v -0.899042 -1.312442 0.000000
v -0.000000 -2.810846 0.000000
vt 0.375 0.0
vt 0.625 0.0
vt 0.375 0.25
vt 0.625 0.25
vt 0.375 0.5
vt 0.625 0.5
vt 0.375 0.75
vt 0.625 0.75
vt 0.375 1.0
vt 0.625 1.0
vt 0.875 0.0
vt 0.875 0.25
vt 0.125 0.0
vt 0.125 0.25
vt 0.500000059605 0.0
vt 0.75 0.25
vt 0.5 0.5
vt 0.25 0.249999985099
vt 0.25 0.5
vt 0.375 0.5
vt 0.5 1.0
vt 0.5 0.5
vt 0.625 0.5
vt 0.75 0.5
vn 0.000000 0.000000 1.000000
vn 0.000000 0.000000 1.000000
vn 0.000000 0.000000 1.000000
vn 0.000000 0.000000 1.000000
vn 0.000000 1.000000 0.000000
vn 0.000000 1.000000 0.000000
vn 0.000000 1.000000 0.000000
vn 0.000000 1.000000 0.000000
vn 0.000000 0.000000 -1.000000
vn 0.000000 0.000000 -1.000000
vn 0.000000 0.000000 -1.000000
vn 0.000000 0.000000 -1.000000
vn 0.000000 -1.000000 0.000000
vn 0.000000 -1.000000 0.000000
vn 0.000000 -1.000000 0.000000
vn 0.000000 -1.000000 0.000000
vn 1.000000 0.000000 0.000000
vn 1.000000 0.000000 0.000000
vn 1.000000 0.000000 0.000000
vn 1.000000 0.000000 0.000000
vn -1.000000 0.000000 0.000000
vn -1.000000 0.000000 0.000000
vn -1.000000 0.000000 0.000000
vn -1.000000 0.000000 0.000000
vn 0.000000 1.000000 0.000000
vn 0.000000 1.000000 0.000000
vn 0.000000 1.000000 0.000000
vn 0.000000 1.000000 0.000000
vn 0.650944 -0.390567 -0.650945
vn 0.650944 -0.390567 -0.650945
vn 0.650944 -0.390567 -0.650945
vn 0.650945 -0.390567 0.650944
vn 0.650945 -0.390567 0.650944
vn 0.650945 -0.390567 0.650944
vn -0.650945 -0.390567 0.650945
vn -0.650945 -0.390567 0.650945
vn -0.650945 -0.390567 0.650945
vn -0.650945 -0.390567 -0.650944
vn -0.650945 -0.390567 -0.650944
vn -0.650945 -0.390567 -0.650944
s 0
g polySurface1
usemtl lambert2SG
s 1
f 1/1/1 2/2/2 3/3/3 
f 3/3/3 2/2/2 4/4/4 
f 3/3/5 4/4/6 5/5/7 
f 5/5/7 4/4/6 6/6/8 
f 5/5/9 6/6/10 7/7/11 
f 7/7/11 6/6/10 8/8/12 
f 7/7/13 8/8/14 1/9/15 
f 1/9/15 8/8/14 2/10/16 
f 2/2/17 8/11/18 4/4/19 
f 4/4/19 8/11/18 6/12/20 
f 7/13/21 1/1/22 5/14/23 
f 5/14/23 1/1/22 3/3/24 
s 0
f 9/15/25 12/16/26 10/18/27 
f 10/18/27 12/16/26 11/17/28 
s 1
f 9/19/29 10/20/30 13/21/31 
f 10/20/32 11/22/33 13/21/34 
f 11/22/35 12/23/36 13/21/37 
f 12/23/38 9/24/39 13/21/40 
